<?xml version="1.0" encoding="iso-8859-1"?>
<!-- Generator: Adobe Illustrator 16.0.0, SVG Export Plug-In . SVG Version: 6.00 Build 0)  -->
<!DOCTYPE svg PUBLIC "-//W3C//DTD SVG 1.1//EN" "http://www.w3.org/Graphics/SVG/1.1/DTD/svg11.dtd">
<svg version="1.1" id="Layer_1" xmlns="http://www.w3.org/2000/svg" xmlns:xlink="http://www.w3.org/1999/xlink" x="0px" y="0px"
	 width="600px" height="600px" viewBox="0 0 600 600" style="enable-background:new 0 0 600 600;" xml:space="preserve">
<g>
	<path style="fill:#0A0A0A;" d="M309.28,4.654C134.851,0.522,9.738,136.883,3.718,285.027
		c-7.257,178.578,135.241,308.139,294.174,309.049c168.614,0.962,300.501-133.071,299.189-293.94
		C598.459,134.88,465.047,8.344,309.28,4.654z M167.804,472.157c4.352,3.237,8.224,7.129,12.251,10.792
		c5.601,5.103,5.579,5.325-0.656,10.82c3.426-4.582,0.645-7.431-2.362-10.293c-4.49-4.27-9.146-8.403-13.259-13.016
		c-1.503-1.688-2.884-5.013-2.234-6.854c7.016-19.887,14.452-39.627,21.771-59.407c0.746,0.25,1.492,0.499,2.236,0.748
		c-0.46,1.363-0.882,2.739-1.39,4.083c-6.489,17.165-12.932,34.346-19.53,51.469C162.77,465.328,163.441,468.908,167.804,472.157z
		 M523.359,415.213c-10.233,18.817-22.082,36.619-37.57,51.713c-7.371,7.18-14.514,14.593-21.874,21.785
		c-2.472,2.416-3.815,4.694-2.672,8.408c0.735,2.385,0.138,5.178-0.463,7.969c-1.66-6.128-2.803-12.464-5.128-18.329
		c-2.74-6.922-6.146-13.65-9.969-20.043c-2.349-3.927-1.807-6.157,1.349-9.133c7.312-6.898,14.178-14.269,21.41-21.255
		c2.657-2.569,5.596-5.051,8.829-6.778c6.142-3.279,10.907-7.633,12.042-14.627c0.506-3.108,0.466-7.298-1.23-9.576
		c-3.798-5.105-4.502-10.153-2.604-15.83c3.884-11.626,1.578-23.39,1.05-35.131c-0.671-14.92-5.159-28.356-12.921-41.262
		c-15.08-25.07-37.356-40.339-65.415-44.048c-27.357-3.616-54.584,0.517-77.081,19.09c-12.965,10.706-22.97,24.154-31.691,38.488
		c-1.233,2.032-1.893,4.517-2.379,6.881c-1.99,9.672-3.203,19.551-5.856,29.029c-3.065,10.95,0.538,20.001,6.331,28.57
		c2.905,4.3,2.706,7.25-0.419,11.43c-7.617,10.19-4.409,21.729,7.061,26.886c1.904,0.855,4.255,0.72,6.401,1.043
		c-0.01-2.121,0.122-4.255-0.078-6.359c-0.117-1.23-0.757-2.411-0.736-4.158c17.577,40.433,52.092,51.077,91.871,52.517
		c-0.128,0.645-0.258,1.288-0.387,1.931c-8.615-0.778-17.339-0.952-25.814-2.494c-9.166-1.669-18.181-4.357-27.097-7.126
		c-3.857-1.195-6.154-0.895-8.346,2.704c-8.51,13.965-14.267,28.839-16.04,45.189c-0.755,6.972-1.822,13.908-2.746,20.861
		c-0.541,0.05-1.084,0.103-1.626,0.153c-1.039-3.942-2.061-7.891-3.12-11.829c-9.94-36.931-19.933-73.847-29.784-110.8
		c-1.354-5.078-4.148-8.008-9.271-9.319c-11.027-2.82-21.97-5.965-34.389-9.373c1.584,2.97,2.319,4.988,3.573,6.606
		c13.995,18.018,22.409,38.889,30.889,59.756c2.82,6.941,1.334,12.206-4.47,16.845c-4.499,3.596-8.55,7.748-12.72,11.582
		c5.891,11.091,18.812,15.709,23.205,28.54c-8.486-8.722-15.9-16.623-23.654-24.172c-3.245-3.162-3.158-5.372,0.187-8.166
		c3.746-3.126,7.159-6.647,10.9-9.781c4.918-4.12,6.379-8.797,3.944-14.964c-9.259-23.461-20.416-45.905-35.112-66.468
		c-4.593-6.427-3.203-10.815,3.583-14.561c5.585-3.083,10.292-7.724,15.54-11.463c3.907-2.782,7.927-5.46,12.138-7.74
		c3.181-1.722,6.745-2.736,10.897-4.364c-2.719-3.949-4.91-6.931-6.88-10.052c-2.921-4.629-2.028-6.731,3.136-7.802
		c1.829-0.378,3.657-0.876,5.51-1.021c8.137-0.638,8.178-0.655,5.689-8.181c-0.827-2.494-1.673-4.984-2.466-7.492
		c-1.831-5.792-0.966-6.917,4.744-9.075c7.211-2.728,14.228-5.976,21.327-8.999c-0.098-0.688-0.193-1.376-0.291-2.063
		c-8.854-5.896-17.709-11.792-26.566-17.69c0.149-0.711,0.298-1.422,0.447-2.133c15.931-6.26,32.113-12.046,46.966-23.211
		c-12.245-5.303-23.476-10.167-36.199-15.677c11.263-10.832,21.803-20.968,32.343-31.105c-0.045-0.702-0.092-1.406-0.135-2.109
		c-13.528-2.273-27.058-4.547-41.976-7.053c8.472-15.08,16.369-29.138,24.266-43.195c-0.405-0.479-0.812-0.957-1.218-1.435
		c-7.5,2.621-14.992,5.265-22.501,7.855c-4.428,1.528-8.959,2.784-13.308,4.508c-4.165,1.65-6.235-0.122-6.798-3.906
		c-1.02-6.833-1.871-13.705-2.423-20.59c-0.718-8.938-1.077-17.906-1.671-28.257c-4.625,2.348-8.896,4.057-12.673,6.522
		c-10.671,6.964-21.315,14.014-29.141,24.428c-2.455,3.271-4.684,2.626-7.169-0.47c-8.082-10.074-16.367-19.987-24.646-29.901
		c-1.27-1.52-2.928-2.714-5.538-5.09c-1.09,5.508-1.838,9.788-2.794,14.019c-2.099,9.298-4.037,18.645-6.556,27.832
		c-1.895,6.911-3.398,7.232-10.176,4.604c-8.73-3.385-17.488-6.721-26.345-9.748c-2.098-0.716-4.643-0.122-6.982-0.13
		c0.423,2.26,0.645,4.579,1.303,6.769c3.003,9.993,6.272,19.91,9.127,29.946c0.886,3.119-0.442,5.3-4.299,5.553
		c-7.453,0.488-14.881,1.316-22.318,2.008c-8.496,0.789-16.99,1.582-25.484,2.374c-0.208,0.573-0.415,1.144-0.622,1.717
		c4.768,5.226,9.754,10.273,14.245,15.727c4.623,5.615,8.793,11.604,13.105,17.469c3.054,4.155,1.365,7.421-2.22,10.09
		c-9.018,6.721-18.103,13.349-27.134,20.049c-1.271,0.942-2.39,2.088-4.683,4.114c4.808,1.316,8.279,2.457,11.834,3.203
		c11.098,2.332,19.861,8.188,27.12,16.81c2.564,3.044,1.655,4.654-0.663,6.984c-6.987,7.021-13.793,14.223-21.468,22.182
		c2.791,1.586,4.493,2.898,6.42,3.585c6.722,2.395,13.515,4.593,20.293,6.828c3.53,1.165,5.252,2.924,4.005,7.116
		c-1.813,6.095-2.894,12.403-4.462,18.576c-0.807,3.17,0.065,4.737,3.432,4.616c5.613-0.2,11.25-0.164,16.829-0.719
		c3.006-0.3,4.751,0.213,5.23,3.353c0.812,5.312,1.652,10.62,2.681,17.222c4.938-2.104,9.049-3.856,13.91-5.927
		c-16.379-22.887-21.074-48.432-23.883-74.533c0.546-0.128,1.092-0.254,1.638-0.383c0.783,5.317,1.394,10.665,2.379,15.941
		c3.737,20.038,8.667,39.862,21.753,56.005c4.559,5.622,12.381,8.551,18.538,12.953c2.19,1.566,4.7,3.543,5.576,5.891
		c1.317,3.525-0.887,5.681-4.59,6.857c-13.423,4.271-26.718,8.941-40.145,13.204c-3.793,1.204-5.934,3.18-7.032,7.063
		c-6.534,23.097-13.253,46.14-19.941,69.19c-0.292,1.004-0.896,1.918-1.874,3.021c0.612-9.687-7.454-13.924-12.383-19.671
		c-32.468-37.846-52.738-81.185-60.321-130.433c-3.183-20.668-2.771-41.427-1.177-62.223c2.532-33.065,12.399-63.963,27.542-93.22
		c9.603-18.549,21.83-35.297,35.691-51.036c15.654-17.776,33.616-32.564,53.416-45.267c27.491-17.636,57.272-29.834,89.541-34.977
		c16.382-2.61,33.105-4.584,49.646-4.395c33.999,0.389,66.898,7.105,98.219,21.033c25.787,11.468,48.938,26.64,69.881,45.573
		c41.543,37.555,67.124,84.088,78.663,138.493c4.732,22.315,4.637,45.164,3.508,67.803
		C550.9,349.896,540.514,383.666,523.359,415.213z"/>
	<path style="fill:none;" d="M549.185,246.157c-11.539-54.405-37.12-100.938-78.663-138.493
		c-20.942-18.933-44.094-34.104-69.881-45.573c-31.32-13.928-64.22-20.645-98.219-21.033c-16.541-0.19-33.264,1.785-49.646,4.395
		c-32.269,5.143-62.05,17.341-89.541,34.977c-19.8,12.702-37.761,27.49-53.416,45.267c-13.862,15.738-26.089,32.486-35.691,51.036
		c-15.143,29.256-25.01,60.155-27.542,93.22c-1.594,20.796-2.006,41.555,1.177,62.223c7.583,49.248,27.854,92.587,60.321,130.433
		c4.929,5.747,12.995,9.984,12.383,19.671c0.978-1.103,1.582-2.017,1.874-3.021c6.688-23.051,13.407-46.094,19.941-69.19
		c1.098-3.884,3.238-5.859,7.032-7.063c13.427-4.263,26.721-8.933,40.145-13.204c3.704-1.177,5.908-3.332,4.59-6.857
		c-0.876-2.348-3.386-4.324-5.576-5.891c-6.157-4.402-13.979-7.331-18.538-12.953c-13.087-16.143-18.017-35.967-21.753-56.005
		c-0.985-5.276-1.596-10.624-2.379-15.941c-0.546,0.128-1.092,0.255-1.638,0.383c2.809,26.101,7.504,51.646,23.883,74.533
		c-4.861,2.07-8.972,3.822-13.91,5.927c-1.029-6.602-1.869-11.909-2.681-17.222c-0.479-3.14-2.224-3.652-5.23-3.353
		c-5.579,0.555-11.216,0.519-16.829,0.719c-3.366,0.121-4.238-1.446-3.432-4.616c1.568-6.173,2.649-12.481,4.462-18.576
		c1.248-4.192-0.475-5.951-4.005-7.116c-6.778-2.235-13.571-4.434-20.293-6.828c-1.927-0.687-3.629-1.999-6.42-3.585
		c7.675-7.959,14.481-15.161,21.468-22.182c2.318-2.33,3.227-3.94,0.663-6.984c-7.259-8.621-16.022-14.478-27.12-16.81
		c-3.555-0.747-7.026-1.887-11.834-3.203c2.293-2.026,3.413-3.172,4.683-4.114c9.031-6.7,18.116-13.328,27.134-20.049
		c3.585-2.669,5.274-5.935,2.22-10.09c-4.312-5.866-8.482-11.854-13.105-17.469c-4.491-5.454-9.477-10.501-14.245-15.727
		c0.207-0.573,0.414-1.144,0.622-1.717c8.494-0.792,16.988-1.585,25.484-2.374c7.438-0.692,14.866-1.52,22.318-2.008
		c3.857-0.253,5.186-2.434,4.299-5.553c-2.855-10.036-6.125-19.953-9.127-29.946c-0.658-2.19-0.88-4.509-1.303-6.769
		c2.339,0.008,4.885-0.586,6.982,0.13c8.856,3.027,17.614,6.363,26.345,9.748c6.778,2.628,8.281,2.307,10.176-4.604
		c2.519-9.187,4.457-18.533,6.556-27.832c0.956-4.231,1.704-8.511,2.794-14.019c2.609,2.375,4.268,3.57,5.538,5.09
		c8.28,9.914,16.565,19.827,24.646,29.901c2.485,3.096,4.714,3.74,7.169,0.47c7.826-10.415,18.47-17.464,29.141-24.428
		c3.776-2.466,8.047-4.174,12.673-6.522c0.594,10.351,0.953,19.319,1.671,28.257c0.552,6.885,1.403,13.757,2.423,20.59
		c0.563,3.784,2.633,5.556,6.798,3.906c4.349-1.724,8.879-2.98,13.308-4.508c7.509-2.59,15.001-5.234,22.501-7.855
		c0.406,0.478,0.812,0.956,1.218,1.435c-7.896,14.057-15.793,28.115-24.266,43.195c14.918,2.506,28.447,4.78,41.976,7.053
		c0.043,0.704,0.09,1.407,0.135,2.109c-10.54,10.138-21.08,20.274-32.343,31.105c12.724,5.51,23.954,10.374,36.199,15.677
		c-14.853,11.166-31.035,16.951-46.966,23.211c-0.148,0.711-0.297,1.422-0.447,2.133c8.857,5.897,17.711,11.794,26.566,17.69
		c0.098,0.688,0.193,1.376,0.291,2.063c-7.099,3.023-14.115,6.271-21.327,8.999c-5.71,2.158-6.575,3.283-4.744,9.075
		c0.793,2.508,1.64,4.998,2.466,7.492c2.489,7.525,2.448,7.543-5.689,8.181c-1.853,0.145-3.681,0.643-5.51,1.021
		c-5.164,1.07-6.057,3.173-3.136,7.802c1.971,3.121,4.162,6.103,6.88,10.052c-4.152,1.628-7.716,2.643-10.897,4.364
		c-4.211,2.28-8.23,4.958-12.138,7.74c-5.248,3.739-9.955,8.38-15.54,11.463c-6.786,3.745-8.176,8.134-3.583,14.561
		c14.697,20.562,25.853,43.007,35.112,66.468c2.435,6.167,0.974,10.844-3.944,14.964c-3.742,3.134-7.154,6.655-10.9,9.781
		c-3.344,2.794-3.431,5.004-0.187,8.166c7.754,7.549,15.168,15.45,23.654,24.172c-4.394-12.831-17.314-17.449-23.205-28.54
		c4.17-3.834,8.221-7.986,12.72-11.582c5.804-4.639,7.29-9.903,4.47-16.845c-8.479-20.867-16.894-41.738-30.889-59.756
		c-1.253-1.618-1.988-3.637-3.573-6.606c12.419,3.408,23.362,6.553,34.389,9.373c5.123,1.312,7.917,4.241,9.271,9.319
		c9.851,36.953,19.843,73.869,29.784,110.8c1.06,3.938,2.081,7.887,3.12,11.829c0.542-0.051,1.085-0.104,1.626-0.153
		c0.924-6.953,1.991-13.89,2.746-20.861c1.773-16.351,7.53-31.225,16.04-45.189c2.191-3.599,4.488-3.899,8.346-2.704
		c8.916,2.769,17.931,5.457,27.097,7.126c8.476,1.542,17.199,1.716,25.814,2.494c0.129-0.643,0.259-1.286,0.387-1.931
		c-39.779-1.439-74.294-12.084-91.871-52.517c-0.021,1.747,0.619,2.928,0.736,4.158c0.2,2.104,0.068,4.238,0.078,6.359
		c-2.146-0.323-4.497-0.188-6.401-1.043c-11.47-5.156-14.678-16.695-7.061-26.886c3.125-4.18,3.324-7.13,0.419-11.43
		c-5.793-8.569-9.396-17.62-6.331-28.57c2.654-9.479,3.867-19.357,5.856-29.029c0.487-2.364,1.146-4.849,2.379-6.881
		c8.721-14.334,18.726-27.783,31.691-38.488c22.497-18.574,49.724-22.706,77.081-19.09c28.059,3.709,50.335,18.979,65.415,44.048
		c7.762,12.905,12.25,26.342,12.921,41.262c0.528,11.741,2.834,23.505-1.05,35.131c-1.897,5.677-1.193,10.725,2.604,15.83
		c1.696,2.278,1.736,6.468,1.23,9.576c-1.135,6.994-5.9,11.348-12.042,14.627c-3.233,1.728-6.172,4.209-8.829,6.778
		c-7.232,6.986-14.099,14.356-21.41,21.255c-3.155,2.976-3.697,5.206-1.349,9.133c3.823,6.393,7.229,13.121,9.969,20.043
		c2.325,5.865,3.468,12.201,5.128,18.329c0.601-2.791,1.198-5.584,0.463-7.969c-1.144-3.714,0.2-5.992,2.672-8.408
		c7.36-7.192,14.503-14.605,21.874-21.785c15.488-15.094,27.337-32.896,37.57-51.713c17.154-31.547,27.541-65.317,29.333-101.253
		C553.821,291.321,553.917,268.473,549.185,246.157z"/>
	<path style="fill:none;" d="M184.162,409.031c0.508-1.344,0.929-2.72,1.39-4.083c-0.744-0.249-1.49-0.498-2.236-0.748
		c-7.32,19.78-14.755,39.521-21.771,59.407c-0.65,1.841,0.731,5.166,2.234,6.854c4.113,4.612,8.769,8.746,13.259,13.016
		c3.007,2.862,5.788,5.711,2.362,10.293c6.234-5.495,6.256-5.718,0.656-10.82c-4.027-3.663-7.899-7.555-12.251-10.792
		c-4.362-3.249-5.034-6.829-3.172-11.657C171.229,443.377,177.672,426.196,184.162,409.031z"/>
</g>
</svg>
